<svg width="88" height="68" viewBox="0 0 88 68" fill="none" xmlns="http://www.w3.org/2000/svg">
<ellipse cx="44" cy="34.0484" rx="10.1538" ry="10.2" fill="#FF7A00"/>
<path d="M44 58.5284C48.6732 58.5284 52.4615 54.7228 52.4615 50.0284H35.5385C35.5385 54.7228 39.3268 58.5284 44 58.5284Z" fill="#FF7A00"/>
<path d="M25.1359 32.3484H40.6188V35.7484H23.6957V34.0484L25.1359 32.3484Z" fill="#FF7A00"/>
<path d="M61.7727 31.11L64.1419 32.3484H78.865V35.7484H61.9419L61.7727 31.11Z" fill="#FF7A00"/>
<path fill-rule="evenodd" clip-rule="evenodd" d="M23.6957 34C23.6957 22.7334 32.7877 13.6 44.0034 13.6C55.219 13.6 64.3111 22.7334 64.3111 34H61.8741C61.8741 24.0854 53.8731 16.048 44.0034 16.048C34.1336 16.048 26.1326 24.0854 26.1326 34H23.6957Z" fill="#FF7A00"/>
<path fill-rule="evenodd" clip-rule="evenodd" d="M44.0034 68C62.6961 68 77.8495 52.7777 77.8495 34C77.8495 15.2223 62.6961 0 44.0034 0C25.3107 0 10.1572 15.2223 10.1572 34C10.1572 52.7777 25.3107 68 44.0034 68ZM44.0034 62.56C59.7053 62.56 72.4342 49.7733 72.4342 34C72.4342 18.2267 59.7053 5.44 44.0034 5.44C28.3015 5.44 15.5726 18.2267 15.5726 34C15.5726 49.7733 28.3015 62.56 44.0034 62.56Z" fill="#FF7A00"/>
<rect y="28.9" width="13.5385" height="10.2" fill="#FF7A00"/>
<rect x="74.4614" y="28.9" width="13.5385" height="10.2" fill="#FF7A00"/>
<rect width="10.1654" height="8.15079" transform="matrix(0.865041 0.501702 -0.4983 0.867005 10.8341 10.2)" fill="#FF7A00"/>
<rect width="10.1654" height="8.15078" transform="matrix(0.865041 0.501702 -0.4983 0.867004 72.0955 45.73)" fill="#FF7A00"/>
<rect width="10.1968" height="8.18219" transform="matrix(0.870587 -0.491925 0.486157 0.873935 6.77271 50.7461)" fill="#FF7A00"/>
<rect width="10.1968" height="8.18219" transform="matrix(0.870587 -0.491925 0.486157 0.873935 68.0339 15.2161)" fill="#FF7A00"/>
</svg>
